<?xml version="1.0" encoding="UTF-8" standalone="no"?>
<!-- Created with Inkscape (http://www.inkscape.org/) -->

<svg
   xmlns:dc="http://purl.org/dc/elements/1.1/"
   xmlns:cc="http://creativecommons.org/ns#"
   xmlns:rdf="http://www.w3.org/1999/02/22-rdf-syntax-ns#"
   xmlns:svg="http://www.w3.org/2000/svg"
   xmlns="http://www.w3.org/2000/svg"
   xmlns:xlink="http://www.w3.org/1999/xlink"
   xmlns:sodipodi="http://sodipodi.sourceforge.net/DTD/sodipodi-0.dtd"
   xmlns:inkscape="http://www.inkscape.org/namespaces/inkscape"
   width="412.75003mm"
   height="254.94482mm"
   viewBox="0 0 412.75003 254.94482"
   version="1.1"
   id="svg8"
   inkscape:version="0.92.3 (2405546, 2018-03-11)"
   sodipodi:docname="cartaz-base-2.svg">
  <defs
     id="defs2">
    <clipPath
       clipPathUnits="userSpaceOnUse"
       id="clipPath927-8-4">
      <text
         xml:space="preserve"
         style="font-style:normal;font-variant:normal;font-weight:normal;font-stretch:normal;font-size:33.23355865px;line-height:1.25;font-family:Audiowide;-inkscape-font-specification:Audiowide;letter-spacing:0px;word-spacing:0px;fill:#000000;fill-opacity:1;stroke:none;stroke-width:0.83083898"
         x="-191.8925"
         y="3.9531043"
         id="text949-7-7"
         transform="scale(0.91883541,1.0883342)"><tspan
           sodipodi:role="line"
           id="tspan929-9-8"
           x="-191.8925"
           y="3.9531043"
           style="stroke-width:0.83083898">0 1 0 1 0 1 0 1 0 1 0 1 0 1 0 1 0 1 0</tspan><tspan
           sodipodi:role="line"
           x="-191.8925"
           y="45.495052"
           style="stroke-width:0.83083898"
           id="tspan931-2-4">0 1 0 1 0 1 0 1 0 1 0 1 0 1 0 1 0 1 0</tspan><tspan
           sodipodi:role="line"
           x="-191.8925"
           y="87.037003"
           style="stroke-width:0.83083898"
           id="tspan933-0-5">0 1 0 1 0 1 0 1 0 1 0 1 0 1 0 1 0 1 0</tspan><tspan
           sodipodi:role="line"
           x="-191.8925"
           y="128.57895"
           style="stroke-width:0.83083898"
           id="tspan935-2-0">0 1 0 1 0 1 0 1 0 1 0 1 0 1 0 1 0 1 0</tspan><tspan
           sodipodi:role="line"
           x="-191.8925"
           y="170.1209"
           style="stroke-width:0.83083898"
           id="tspan937-3-3">0 1 0 1 0 1 0 1 0 1 0 1 0 1 0 1 0 1 0</tspan><tspan
           sodipodi:role="line"
           x="-191.8925"
           y="211.66284"
           style="stroke-width:0.83083898"
           id="tspan939-7-6">0 1 0 1 0 1 0 1 0 1 0 1 0 1 0 1 0 1 0</tspan><tspan
           sodipodi:role="line"
           x="-191.8925"
           y="253.20479"
           style="stroke-width:0.83083898"
           id="tspan941-5-1">0 1 0 1 0 1 0 1 0 1 0 1 0 1 0 1 0 1 0</tspan><tspan
           sodipodi:role="line"
           x="-191.8925"
           y="294.74673"
           style="stroke-width:0.83083898"
           id="tspan943-9-0">0 1 0 1 0 1 0 1 0 1 0 1 0 1 0 1 0 1 0</tspan><tspan
           sodipodi:role="line"
           x="-191.8925"
           y="336.2887"
           style="stroke-width:0.83083898"
           id="tspan945-22-6">0 1 0 1 0 1 0 1 0 1 0 1 0 1 0 1 0 1 0</tspan><tspan
           sodipodi:role="line"
           x="-191.8925"
           y="377.83063"
           style="stroke-width:0.83083898"
           id="tspan947-8-3">0 1 0 1 0 1 0 1 0 1 0 1 0 1 0 1 0 1 0</tspan></text>
    </clipPath>
    <clipPath
       clipPathUnits="userSpaceOnUse"
       id="clipPath1075">
      <circle
         style="opacity:1;fill:#f2f2f2;fill-opacity:1;stroke:none;stroke-width:0.02664049;stroke-linecap:round;stroke-linejoin:round;stroke-miterlimit:4;stroke-dasharray:none;stroke-opacity:1"
         id="circle1077"
         cx="487.01422"
         cy="163.36523"
         r="44.500542" />
    </clipPath>
    <clipPath
       clipPathUnits="userSpaceOnUse"
       id="clipPath1744">
      <path
         style="opacity:1;fill:#ffffff;fill-opacity:1;stroke:none;stroke-width:0.0464787;stroke-linecap:round;stroke-linejoin:round;stroke-miterlimit:4;stroke-dasharray:none;stroke-opacity:1"
         d="M -55.64398,200.56772 H 357.09926 V 455.51256 H -55.64398 Z"
         id="path1746"
         inkscape:connector-curvature="0" />
    </clipPath>
  </defs>
  <sodipodi:namedview
     id="base"
     pagecolor="#ffffff"
     bordercolor="#666666"
     borderopacity="1.0"
     inkscape:pageopacity="0.0"
     inkscape:pageshadow="2"
     inkscape:zoom="0.7"
     inkscape:cx="278.80934"
     inkscape:cy="275.22542"
     inkscape:document-units="mm"
     inkscape:current-layer="layer1"
     showgrid="false"
     fit-margin-top="0"
     fit-margin-left="0"
     fit-margin-right="0"
     fit-margin-bottom="0"
     inkscape:window-width="2560"
     inkscape:window-height="1371"
     inkscape:window-x="0"
     inkscape:window-y="40"
     inkscape:window-maximized="1" />
  <metadata
     id="metadata5">
    <rdf:RDF>
      <cc:Work
         rdf:about="">
        <dc:format>image/svg+xml</dc:format>
        <dc:type
           rdf:resource="http://purl.org/dc/dcmitype/StillImage" />
        <dc:title />
      </cc:Work>
    </rdf:RDF>
  </metadata>
  <g
     inkscape:label="Layer 1"
     inkscape:groupmode="layer"
     id="layer1"
     transform="translate(49.76744,-2.788274)">
    <g
       id="g1129">
      <path
         style="opacity:1;fill:#333333;fill-opacity:1;stroke:none;stroke-width:0.0464787;stroke-linecap:round;stroke-linejoin:round;stroke-miterlimit:4;stroke-dasharray:none;stroke-opacity:1"
         d="M -49.76405,2.788274 H 362.9792 V 257.7331 H -49.76405 Z"
         id="rect1413"
         inkscape:connector-curvature="0" />
      <path
         style="fill:#e74c3c;fill-opacity:1;stroke-width:0.27538705"
         inkscape:connector-curvature="0"
         d="m -49.76744,181.5331 h 17.19792 c 17.19792,0 51.59376,0 85.98959,1.40229 34.39583,1.50812 68.79166,4.15396 103.18749,11.29771 34.39583,7.14375 68.79167,18.25625 103.1875,16.93333 34.39583,-1.32291 68.79167,-15.61042 85.98958,-22.56895 l 17.19795,-7.06438 v 76.2 h -17.19795 c -17.19791,0 -51.59375,0 -85.98958,0 -34.39583,0 -68.79167,0 -103.1875,0 -34.39583,0 -68.79166,0 -103.18749,0 -34.39583,0 -68.79167,0 -85.98959,0 h -17.19792 z"
         id="path1417"
         inkscape:export-xdpi="88"
         inkscape:export-ydpi="88" />
    </g>
    <text
       id="text1405"
       y="174.68951"
       x="-95.275352"
       style="font-style:normal;font-variant:normal;font-weight:normal;font-stretch:normal;font-size:10.58333302px;line-height:1.25;font-family:Ubuntu;-inkscape-font-specification:Ubuntu;letter-spacing:0px;word-spacing:0px;opacity:0.08;fill:#f9f9f9;fill-opacity:1;stroke:none;stroke-width:0.26458332;"
       xml:space="preserve"
       clip-path="url(#clipPath1744)"
       transform="translate(5.879935,-197.77945)"><tspan
         style="stroke-width:0.26458332;"
         id="tspan1279"
         y="174.68951"
         x="-95.275352"
         sodipodi:role="line"><tspan
           style="stroke-width:0.26458332;"
           id="tspan1277"
           y="174.68951"
           x="-95.275352">0101010101010101010101010101010101010101010101010101010101010101010101010101010101010101010101010101</tspan></tspan><tspan
         style="stroke-width:0.26458332;"
         id="tspan1283"
         y="187.91869"
         x="-95.275352"
         sodipodi:role="line"><tspan
           style="stroke-width:0.26458332;"
           id="tspan1281"
           y="187.91869"
           x="-95.275352">0101010101010101010101010101010101010101010101010101010101010101010101010101010101010101010101010101</tspan></tspan><tspan
         style="stroke-width:0.26458332;"
         id="tspan1287"
         y="201.14786"
         x="-95.275352"
         sodipodi:role="line"><tspan
           style="stroke-width:0.26458332;"
           id="tspan1285"
           y="201.14786"
           x="-95.275352">0101010101010101010101010101010101010101010101010101010101010101010101010101010101010101010101010101</tspan></tspan><tspan
         style="stroke-width:0.26458332;"
         id="tspan1291"
         y="214.37701"
         x="-95.275352"
         sodipodi:role="line"><tspan
           style="stroke-width:0.26458332;"
           id="tspan1289"
           y="214.37701"
           x="-95.275352">0101010101010101010101010101010101010101010101010101010101010101010101010101010101010101010101010101</tspan></tspan><tspan
         style="stroke-width:0.26458332;"
         id="tspan1295"
         y="227.60619"
         x="-95.275352"
         sodipodi:role="line"><tspan
           style="stroke-width:0.26458332;"
           id="tspan1293"
           y="227.60619"
           x="-95.275352">0101010101010101010101010101010101010101010101010101010101010101010101010101010101010101010101010101</tspan></tspan><tspan
         style="stroke-width:0.26458332;"
         id="tspan1299"
         y="240.83536"
         x="-95.275352"
         sodipodi:role="line"><tspan
           style="stroke-width:0.26458332;"
           id="tspan1297"
           y="240.83536"
           x="-95.275352">0101010101010101010101010101010101010101010101010101010101010101010101010101010101010101010101010101</tspan></tspan><tspan
         style="stroke-width:0.26458332;"
         id="tspan1303"
         y="254.0645"
         x="-95.275352"
         sodipodi:role="line"><tspan
           style="stroke-width:0.26458332;"
           id="tspan1301"
           y="254.0645"
           x="-95.275352">0101010101010101010101010101010101010101010101010101010101010101010101010101010101010101010101010101</tspan></tspan><tspan
         style="stroke-width:0.26458332;"
         id="tspan1307"
         y="267.29367"
         x="-95.275352"
         sodipodi:role="line"><tspan
           style="stroke-width:0.26458332;"
           id="tspan1305"
           y="267.29367"
           x="-95.275352">0101010101010101010101010101010101010101010101010101010101010101010101010101010101010101010101010101</tspan></tspan><tspan
         style="stroke-width:0.26458332;"
         id="tspan1311"
         y="280.52286"
         x="-95.275352"
         sodipodi:role="line"><tspan
           style="stroke-width:0.26458332;"
           id="tspan1309"
           y="280.52286"
           x="-95.275352">0101010101010101010101010101010101010101010101010101010101010101010101010101010101010101010101010101</tspan></tspan><tspan
         style="stroke-width:0.26458332;"
         id="tspan1315"
         y="293.75201"
         x="-95.275352"
         sodipodi:role="line"><tspan
           style="stroke-width:0.26458332;"
           id="tspan1313"
           y="293.75201"
           x="-95.275352">0101010101010101010101010101010101010101010101010101010101010101010101010101010101010101010101010101</tspan></tspan><tspan
         style="stroke-width:0.26458332;"
         id="tspan1319"
         y="306.98117"
         x="-95.275352"
         sodipodi:role="line"><tspan
           style="stroke-width:0.26458332;"
           id="tspan1317"
           y="306.98117"
           x="-95.275352">0101010101010101010101010101010101010101010101010101010101010101010101010101010101010101010101010101</tspan></tspan><tspan
         style="stroke-width:0.26458332;"
         id="tspan1323"
         y="320.21036"
         x="-95.275352"
         sodipodi:role="line"><tspan
           style="stroke-width:0.26458332;"
           id="tspan1321"
           y="320.21036"
           x="-95.275352">0101010101010101010101010101010101010101010101010101010101010101010101010101010101010101010101010101</tspan></tspan><tspan
         style="stroke-width:0.26458332;"
         id="tspan1327"
         y="333.43951"
         x="-95.275352"
         sodipodi:role="line"><tspan
           style="stroke-width:0.26458332;"
           id="tspan1325"
           y="333.43951"
           x="-95.275352">0101010101010101010101010101010101010101010101010101010101010101010101010101010101010101010101010101</tspan></tspan><tspan
         style="stroke-width:0.26458332;"
         id="tspan1331"
         y="346.66867"
         x="-95.275352"
         sodipodi:role="line"><tspan
           style="stroke-width:0.26458332;"
           id="tspan1329"
           y="346.66867"
           x="-95.275352">0101010101010101010101010101010101010101010101010101010101010101010101010101010101010101010101010101</tspan></tspan><tspan
         style="stroke-width:0.26458332;"
         id="tspan1335"
         y="359.89786"
         x="-95.275352"
         sodipodi:role="line"><tspan
           style="stroke-width:0.26458332;"
           id="tspan1333"
           y="359.89786"
           x="-95.275352">0101010101010101010101010101010101010101010101010101010101010101010101010101010101010101010101010101</tspan></tspan><tspan
         style="stroke-width:0.26458332;"
         id="tspan1339"
         y="373.12701"
         x="-95.275352"
         sodipodi:role="line"><tspan
           style="stroke-width:0.26458332;"
           id="tspan1337"
           y="373.12701"
           x="-95.275352">0101010101010101010101010101010101010101010101010101010101010101010101010101010101010101010101010101</tspan></tspan><tspan
         style="stroke-width:0.26458332;"
         id="tspan1343"
         y="386.35617"
         x="-95.275352"
         sodipodi:role="line"><tspan
           style="stroke-width:0.26458332;"
           id="tspan1341"
           y="386.35617"
           x="-95.275352">0101010101010101010101010101010101010101010101010101010101010101010101010101010101010101010101010101</tspan></tspan><tspan
         style="stroke-width:0.26458332;"
         id="tspan1347"
         y="399.58536"
         x="-95.275352"
         sodipodi:role="line"><tspan
           style="stroke-width:0.26458332;"
           id="tspan1345"
           y="399.58536"
           x="-95.275352">0101010101010101010101010101010101010101010101010101010101010101010101010101010101010101010101010101</tspan></tspan><tspan
         style="stroke-width:0.26458332;"
         id="tspan1351"
         y="412.81451"
         x="-95.275352"
         sodipodi:role="line"><tspan
           style="stroke-width:0.26458332;"
           id="tspan1349"
           y="412.81451"
           x="-95.275352">0101010101010101010101010101010101010101010101010101010101010101010101010101010101010101010101010101</tspan></tspan><tspan
         style="stroke-width:0.26458332;"
         id="tspan1355"
         y="426.04367"
         x="-95.275352"
         sodipodi:role="line"><tspan
           style="stroke-width:0.26458332;"
           id="tspan1353"
           y="426.04367"
           x="-95.275352">0101010101010101010101010101010101010101010101010101010101010101010101010101010101010101010101010101</tspan></tspan><tspan
         style="stroke-width:0.26458332;"
         id="tspan1359"
         y="439.27286"
         x="-95.275352"
         sodipodi:role="line"><tspan
           style="stroke-width:0.26458332;"
           id="tspan1357"
           y="439.27286"
           x="-95.275352">0101010101010101010101010101010101010101010101010101010101010101010101010101010101010101010101010101</tspan></tspan><tspan
         style="stroke-width:0.26458332;"
         id="tspan1363"
         y="452.50201"
         x="-95.275352"
         sodipodi:role="line"><tspan
           style="stroke-width:0.26458332;"
           id="tspan1361"
           y="452.50201"
           x="-95.275352">0101010101010101010101010101010101010101010101010101010101010101010101010101010101010101010101010101</tspan></tspan><tspan
         style="stroke-width:0.26458332;"
         id="tspan1367"
         y="465.73117"
         x="-95.275352"
         sodipodi:role="line"><tspan
           style="stroke-width:0.26458332;"
           id="tspan1365"
           y="465.73117"
           x="-95.275352">0101010101010101010101010101010101010101010101010101010101010101010101010101010101010101010101010101</tspan></tspan><tspan
         style="stroke-width:0.26458332;"
         id="tspan1371"
         y="478.96036"
         x="-95.275352"
         sodipodi:role="line"><tspan
           style="stroke-width:0.26458332;"
           id="tspan1369"
           y="478.96036"
           x="-95.275352">0101010101010101010101010101010101010101010101010101010101010101010101010101010101010101010101010101</tspan></tspan><tspan
         style="stroke-width:0.26458332;"
         id="tspan1375"
         y="492.18951"
         x="-95.275352"
         sodipodi:role="line"><tspan
           style="stroke-width:0.26458332;"
           id="tspan1373"
           y="492.18951"
           x="-95.275352">0101010101010101010101010101010101010101010101010101010101010101010101010101010101010101010101010101</tspan></tspan><tspan
         style="stroke-width:0.26458332;"
         id="tspan1379"
         y="505.41867"
         x="-95.275352"
         sodipodi:role="line"><tspan
           style="stroke-width:0.26458332;"
           id="tspan1377"
           y="505.41867"
           x="-95.275352">0101010101010101010101010101010101010101010101010101010101010101010101010101010101010101010101010101</tspan></tspan><tspan
         style="stroke-width:0.26458332;"
         id="tspan1383"
         y="518.64783"
         x="-95.275352"
         sodipodi:role="line"><tspan
           style="stroke-width:0.26458332;"
           id="tspan1381"
           y="518.64783"
           x="-95.275352">0101010101010101010101010101010101010101010101010101010101010101010101010101010101010101010101010101</tspan></tspan><tspan
         style="stroke-width:0.26458332;"
         id="tspan1387"
         y="531.87701"
         x="-95.275352"
         sodipodi:role="line"><tspan
           style="stroke-width:0.26458332;"
           id="tspan1385"
           y="531.87701"
           x="-95.275352">0101010101010101010101010101010101010101010101010101010101010101010101010101010101010101010101010101</tspan></tspan><tspan
         style="stroke-width:0.26458332;"
         id="tspan1391"
         y="545.10614"
         x="-95.275352"
         sodipodi:role="line"><tspan
           style="stroke-width:0.26458332;"
           id="tspan1389"
           y="545.10614"
           x="-95.275352">0101010101010101010101010101010101010101010101010101010101010101010101010101010101010101010101010101</tspan></tspan><tspan
         style="stroke-width:0.26458332;"
         id="tspan1395"
         y="558.33533"
         x="-95.275352"
         sodipodi:role="line"><tspan
           style="stroke-width:0.26458332;"
           id="tspan1393"
           y="558.33533"
           x="-95.275352">0101010101010101010101010101010101010101010101010101010101010101010101010101010101010101010101010101</tspan></tspan><tspan
         style="stroke-width:0.26458332;"
         id="tspan1399"
         y="571.56445"
         x="-95.275352"
         sodipodi:role="line"><tspan
           style="stroke-width:0.26458332;"
           id="tspan1397"
           y="571.56445"
           x="-95.275352">0101010101010101010101010101010101010101010101010101010101010101010101010101010101010101010101010101</tspan></tspan><tspan
         style="stroke-width:0.26458332;"
         id="tspan1403"
         y="584.79364"
         x="-95.275352"
         sodipodi:role="line"><tspan
           style="stroke-width:0.26458332;"
           id="tspan1401"
           y="584.79364"
           x="-95.275352">0101010101010101010101010101010101010101010101010101010101010101010101010101010101010101010101010101</tspan></tspan></text>
    <image
       y="118.78294"
       x="427.48297"
       id="image1068"
       xlink:href="yoda.png"
       preserveAspectRatio="none"
       height="89.164581"
       width="119.0625"
       clip-path="url(#clipPath1075)"
       transform="translate(-212.24959,-69.490077)" />
    <g
       id="g1453"
       transform="translate(460.29379,-414.87)"
       inkscape:export-xdpi="88"
       inkscape:export-ydpi="88">
      <g
         transform="translate(3.1e-6,82.853555)"
         id="g1439">
        <path
           style="fill:#e74c3c;fill-opacity:1;stroke:none;stroke-width:0.08821341;stroke-opacity:1"
           d="m -334.3851,359.2484 h 21.3862 c 3.65311,0 6.59405,2.94094 6.59405,6.59404 v 21.3862 c 0,3.65311 -2.94094,6.59405 -6.59405,6.59405 h -21.3862 c -3.6531,0 -6.59405,-2.94094 -6.59405,-6.59405 v -21.3862 c 0,-3.6531 2.94095,-6.59404 6.59405,-6.59404 z"
           id="path1421"
           inkscape:connector-curvature="0" />
        <g
           transform="matrix(0.45846563,0,0,0.47387095,-190.00752,199.09047)"
           id="g1437">
          <g
             aria-label="{"
             style="font-style:normal;font-weight:normal;font-size:71.69611359px;line-height:1.25;font-family:sans-serif;letter-spacing:0px;word-spacing:0px;fill:#ffffff;fill-opacity:1;stroke:none;stroke-width:1.79240286"
             id="g1425"
             transform="matrix(0.4585485,0,0,0.4585485,-323.94586,153.86641)">
            <path
               d="m 0.63543817,481.50756 q 1.72070673,0 2.93954063,-0.57357 1.218834,-0.64527 2.0074912,-1.57731 0.8603534,-1.00375 1.2188339,-2.22258 0.4301767,-1.29053 0.4301767,-2.58106 v -12.9053 q 0,-2.93955 0.645265,-5.23382 0.6452651,-2.29428 2.2225794,-3.79989 1.577315,-1.57732 4.158375,-2.36598 2.652756,-0.86035 6.524346,-0.86035 h 0.286785 v 5.23382 q -4.086679,0 -5.879082,1.50561 -1.720707,1.43393 -1.720707,5.5923 v 11.0412 q 0,4.73195 -1.29053,7.31301 -1.218833,2.58106 -3.5131091,4.01498 2.2942761,1.43392 3.5131091,4.01498 1.29053,2.58106 1.29053,7.313 v 11.04121 q 0,4.15837 1.720707,5.59229 1.792403,1.50562 5.879082,1.50562 v 5.23382 h -0.286785 q -3.87159,0 -6.524346,-0.78866 -2.58106,-0.78866 -4.158375,-2.36597 -1.5773143,-1.57732 -2.2225794,-3.87159 -0.645265,-2.29428 -0.645265,-5.23382 v -12.9053 q 0,-1.29053 -0.4301767,-2.50936 -0.3584805,-1.29053 -1.2188339,-2.22258 -0.7886572,-1.00375 -2.0074912,-1.57732 -1.2188339,-0.64526 -2.93954063,-0.64526 z"
               style="font-style:normal;font-variant:normal;font-weight:normal;font-stretch:normal;font-family:Ubuntu;-inkscape-font-specification:Ubuntu;fill:#ffffff;stroke-width:1.79240286"
               id="path1423"
               inkscape:connector-curvature="0" />
          </g>
          <g
             aria-label="}"
             style="font-style:normal;font-weight:normal;font-size:71.69611359px;line-height:1.25;font-family:sans-serif;letter-spacing:0px;word-spacing:0px;fill:#ffffff;fill-opacity:1;stroke:none;stroke-width:1.79240286"
             id="g1429"
             transform="matrix(0.4585485,0,0,0.4585485,-323.94586,153.86641)">
            <path
               d="m 140.48289,486.66968 q -1.72071,0 -2.93954,0.64526 -1.21883,0.57357 -2.07919,1.57732 -0.78865,0.93205 -1.21883,2.22258 -0.35848,1.21883 -0.35848,2.50936 v 12.9053 q 0,2.93954 -0.64527,5.23382 -0.64526,2.29427 -2.22258,3.87159 -1.57731,1.57731 -4.23007,2.36597 -2.58106,0.78866 -6.45265,0.78866 h -0.28678 v -5.23382 q 4.08668,0 5.80738,-1.50562 1.79241,-1.43392 1.79241,-5.59229 V 495.4166 q 0,-4.73194 1.21883,-7.313 1.29053,-2.58106 3.58481,-4.01498 -2.29428,-1.43392 -3.58481,-4.01498 -1.21883,-2.58106 -1.21883,-7.31301 v -11.0412 q 0,-4.15837 -1.79241,-5.5923 -1.7207,-1.50561 -5.80738,-1.50561 v -5.23382 h 0.28678 q 3.87159,0 6.45265,0.86035 2.65276,0.78866 4.23007,2.36598 1.57732,1.50561 2.22258,3.79989 0.64527,2.29427 0.64527,5.23382 v 12.9053 q 0,1.29053 0.35848,2.58106 0.43018,1.21883 1.21883,2.22258 0.86036,0.93204 2.07919,1.57731 1.21883,0.57357 2.93954,0.57357 z"
               style="font-style:normal;font-variant:normal;font-weight:normal;font-stretch:normal;font-family:Ubuntu;-inkscape-font-specification:Ubuntu;fill:#ffffff;stroke-width:1.79240286"
               id="path1427"
               inkscape:connector-curvature="0" />
          </g>
          <g
             id="g1435"
             transform="matrix(1.2428123,0,0,1.2428123,68.779482,-91.672533)">
            <path
               id="path1431"
               d="m -276.53959,364.75964 c -1.65191,-1.79166 -3.91856,-2.77843 -6.38293,-2.77843 -1.84206,0 -3.52903,0.58237 -5.01417,1.7308 -0.74938,0.57969 -1.42841,1.2889 -2.0271,2.11669 -0.59844,-0.82754 -1.27769,-1.537 -2.02734,-2.11669 -1.4849,-1.14843 -3.17187,-1.7308 -5.01393,-1.7308 -2.46434,0 -4.73126,0.98677 -6.38317,2.77843 -1.6322,1.77072 -2.53131,4.1898 -2.53131,6.81192 0,2.69882 1.00575,5.16926 3.16506,7.77483 1.93165,2.3307 4.70788,4.6967 7.92286,7.43641 1.09776,0.93564 2.34212,1.99618 3.63419,3.12586 0.34133,0.29898 0.77935,0.46356 1.23364,0.46356 0.45408,0 0.8923,-0.16458 1.23315,-0.46307 1.29208,-1.12993 2.53715,-2.19095 3.63544,-3.12708 3.21448,-2.73923 5.99071,-5.10498 7.92236,-7.43592 2.15931,-2.60533 3.16483,-5.07577 3.16483,-7.77483 0,-2.62188 -0.89914,-5.04096 -2.53158,-6.81168 z m 0,0"
               inkscape:connector-curvature="0"
               style="fill:#ffffff;fill-opacity:1;stroke:none;stroke-width:0.06232719" />
            <path
               transform="matrix(0.23556735,0,0,0.23556735,-314.07803,329.51916)"
               clip-path="url(#clipPath927-8-4)"
               style="fill:#e74c3c;fill-opacity:1;stroke:none;stroke-width:0.26458332"
               inkscape:connector-curvature="0"
               d="m 159.3534,149.59836 c -7.0125,-7.60574 -16.63465,-11.79463 -27.09602,-11.79463 -7.81968,0 -14.981,2.4722 -21.28553,7.34736 -3.1812,2.46083 -6.06371,5.4715 -8.60516,8.98549 -2.54041,-3.51296 -5.42395,-6.52466 -8.60619,-8.98549 -6.30349,-4.87516 -13.464809,-7.34736 -21.284487,-7.34736 -10.461377,0 -20.084562,4.18889 -27.097054,11.79463 -6.928776,7.51685 -10.745597,17.78599 -10.745597,28.91709 0,11.45667 4.269507,21.94388 13.435872,33.00471 8.200017,9.89397 19.985344,19.9378 33.63309,31.56809 4.660176,3.97185 9.942546,8.4739 15.427486,13.26948 1.449,1.26917 3.30832,1.96783 5.23688,1.96783 1.92754,0 3.78789,-0.69866 5.23483,-1.96577 5.48493,-4.7966 10.7704,-9.30072 15.43265,-13.27464 13.64567,-11.62823 25.431,-21.67102 33.63102,-31.56603 9.16636,-11.05979 13.43484,-21.547 13.43484,-33.0047 0,-11.13007 -3.81682,-21.39921 -10.74663,-28.91606 z m 0,0"
               id="path1433" />
          </g>
        </g>
      </g>
      <g
         id="g1451"
         transform="translate(89.832878,2.918395)"
         style="fill:#ffffff;stroke:none">
        <g
           id="g1449"
           transform="translate(0,1.2474098)"
           style="fill:#ffffff">
          <text
             xml:space="preserve"
             style="font-style:normal;font-variant:normal;font-weight:normal;font-stretch:normal;font-size:14.99123669px;line-height:1.25;font-family:Audiowide;-inkscape-font-specification:Audiowide;letter-spacing:0px;word-spacing:0px;fill:#ffffff;fill-opacity:1;stroke:none;stroke-width:0.37478089"
             x="-392.39066"
             y="452.60739"
             id="text1443"><tspan
               sodipodi:role="line"
               id="tspan1441"
               x="-392.39066"
               y="452.60739"
               style="font-style:normal;font-variant:normal;font-weight:normal;font-stretch:normal;font-family:Rubik;-inkscape-font-specification:Rubik;fill:#ffffff;fill-opacity:1;stroke:none;stroke-width:0.37478089">LOVE</tspan></text>
          <text
             id="text1447"
             y="468.48239"
             x="-392.37601"
             style="font-style:normal;font-variant:normal;font-weight:normal;font-stretch:normal;font-size:14.99123669px;line-height:1.25;font-family:Audiowide;-inkscape-font-specification:Audiowide;letter-spacing:0px;word-spacing:0px;fill:#ffffff;fill-opacity:1;stroke:none;stroke-width:0.37478089"
             xml:space="preserve"><tspan
               style="font-style:normal;font-variant:normal;font-weight:normal;font-stretch:normal;font-family:Rubik;-inkscape-font-specification:Rubik;fill:#ffffff;fill-opacity:1;stroke:none;stroke-width:0.37478089"
               y="468.48239"
               x="-392.37601"
               id="tspan1445"
               sodipodi:role="line">BITS</tspan></text>
        </g>
      </g>
    </g>
    <flowRoot
       inkscape:export-ydpi="88"
       inkscape:export-xdpi="88"
       transform="matrix(0.22384516,0,0,0.22384516,-43.373798,53.918083)"
       style="font-style:normal;font-variant:normal;font-weight:normal;font-stretch:normal;font-size:40px;line-height:1.25;font-family:Rubik;-inkscape-font-specification:Rubik;letter-spacing:0px;word-spacing:0px;fill:#ffffff;fill-opacity:1;stroke:none"
       id="flowRoot1493"
       xml:space="preserve"><flowRegion
         id="flowRegion1489"
         style="fill:#ffffff"><rect
           y="228.90736"
           x="62.857143"
           height="357.14288"
           width="1028.5714"
           id="rect1487"
           style="fill:#ffffff" /></flowRegion><flowSpan
         id="flowSpan1058"
         style="font-size:93.33333588px;fill:#ffffff;" /></flowRoot>    <text
       id="text1045"
       y="213.01999"
       x="-9.7540035"
       style="font-style:normal;font-variant:normal;font-weight:normal;font-stretch:normal;font-size:15.57493305px;line-height:1.25;font-family:Ubuntu;-inkscape-font-specification:Ubuntu;letter-spacing:0px;word-spacing:0px;fill:#ffffff;fill-opacity:1;stroke:none;stroke-width:0.3893733"
       xml:space="preserve"><tspan
         style="font-style:normal;font-variant:normal;font-weight:normal;font-stretch:normal;font-family:Rubik;-inkscape-font-specification:Rubik;fill:#ffffff;stroke-width:0.3893733"
         y="213.01999"
         x="-9.7540035"
         id="tspan1043"
         sodipodi:role="line">Dia 25/08</tspan></text>
    <text
       xml:space="preserve"
       style="font-style:normal;font-variant:normal;font-weight:normal;font-stretch:normal;font-size:15.57493305px;line-height:1.25;font-family:Ubuntu;-inkscape-font-specification:Ubuntu;letter-spacing:0px;word-spacing:0px;fill:#ffffff;fill-opacity:1;stroke:none;stroke-width:0.3893733"
       x="-9.7540035"
       y="237.4958"
       id="text1053"><tspan
         sodipodi:role="line"
         id="tspan1051"
         x="-9.7540035"
         y="237.4958"
         style="font-style:normal;font-variant:normal;font-weight:normal;font-stretch:normal;font-family:Rubik;-inkscape-font-specification:Rubik;fill:#ffffff;stroke-width:0.3893733">Horário 10:00h</tspan></text>
    <g
       style="fill:#ffffff"
       transform="matrix(0.02946914,0,0,0.02946914,-37.212969,200.00909)"
       id="g1057">
      <path
         style="fill:#ffffff"
         inkscape:connector-curvature="0"
         d="M 446,40 H 400 V 16 C 400,7.164 392.837,0 384,0 375.163,0 368,7.164 368,16 V 40 H 144 V 16 C 144,7.164 136.837,0 128,0 119.163,0 112,7.164 112,16 V 40 H 66 C 29.607,40 0,69.607 0,106 v 340 c 0,36.393 29.607,66 66,66 h 380 c 36.393,0 66,-29.607 66,-66 V 106 C 512,69.607 482.393,40 446,40 Z m 34,406 c 0,18.778 -15.222,34 -34,34 H 66 C 47.222,480 32,464.778 32,446 V 181 c 0,-2.761 2.239,-5 5,-5 h 438 c 2.761,0 5,2.239 5,5 z"
         id="path1055" />
    </g>
    <g
       style="fill:#ffffff"
       transform="matrix(0.03403655,0,0,0.03403655,-37.212969,224.32916)"
       id="g1081">
      <path
         style="fill:#ffffff"
         inkscape:connector-curvature="0"
         d="M 221.647,0 C 99.433,0 0,99.433 0,221.647 c 0,122.214 99.433,221.647 221.647,221.647 122.214,0 221.647,-99.433 221.647,-221.647 C 443.294,99.433 343.861,0 221.647,0 Z m 0,415.588 c -106.941,0 -193.941,-87 -193.941,-193.941 0,-106.941 87,-193.941 193.941,-193.941 106.941,0 193.941,87 193.941,193.941 0,106.941 -87,193.941 -193.941,193.941 z"
         id="path1068" />
      <path
         style="fill:#ffffff"
         inkscape:connector-curvature="0"
         d="M 235.5,83.118 H 207.794 V 227.383 L 294.97,314.559 314.559,294.97 235.5,215.911 Z"
         id="path1070" />
    </g>
    <g
       id="g1465"
       transform="matrix(0.02946914,0,0,0.02946914,-37.212917,200.00909)"
       style="fill:#ffffff">
      <path
         id="path1463"
         d="M 446,40 H 400 V 16 C 400,7.164 392.837,0 384,0 375.163,0 368,7.164 368,16 V 40 H 144 V 16 C 144,7.164 136.837,0 128,0 119.163,0 112,7.164 112,16 V 40 H 66 C 29.607,40 0,69.607 0,106 v 340 c 0,36.393 29.607,66 66,66 h 380 c 36.393,0 66,-29.607 66,-66 V 106 C 512,69.607 482.393,40 446,40 Z m 34,406 c 0,18.778 -15.222,34 -34,34 H 66 C 47.222,480 32,464.778 32,446 V 181 c 0,-2.761 2.239,-5 5,-5 h 438 c 2.761,0 5,2.239 5,5 z"
         inkscape:connector-curvature="0"
         style="fill:#ffffff" />
    </g>
    <g
       id="g1471"
       transform="matrix(0.03403655,0,0,0.03403655,-37.212917,224.32915)"
       style="fill:#ffffff">
      <path
         id="path1467"
         d="M 221.647,0 C 99.433,0 0,99.433 0,221.647 c 0,122.214 99.433,221.647 221.647,221.647 122.214,0 221.647,-99.433 221.647,-221.647 C 443.294,99.433 343.861,0 221.647,0 Z m 0,415.588 c -106.941,0 -193.941,-87 -193.941,-193.941 0,-106.941 87,-193.941 193.941,-193.941 106.941,0 193.941,87 193.941,193.941 0,106.941 -87,193.941 -193.941,193.941 z"
         inkscape:connector-curvature="0"
         style="fill:#ffffff" />
      <path
         id="path1469"
         d="M 235.5,83.118 H 207.794 V 227.383 L 294.97,314.559 314.559,294.97 235.5,215.911 Z"
         inkscape:connector-curvature="0"
         style="fill:#ffffff" />
    </g>
    <g
       transform="translate(177.58844,5.9835269)"
       id="g1184"
       inkscape:export-xdpi="88"
       inkscape:export-ydpi="88"
       style="fill:#ffffff">
      <g
         id="g1146"
         transform="matrix(0.0390622,0,0,0.04399218,32.403886,217.13303)"
         style="fill:#ffffff">
        <path
           id="path1132"
           d="M 334.80859,170.99219 221.69531,109.10156 c -6.5039,-3.55859 -14.1914,-3.42578 -20.5664,0.35157 -6.37891,3.78125 -10.1836,10.46093 -10.1836,17.875 v 122.71874 c 0,7.37891 3.78125,14.04688 10.11719,17.83204 3.30859,1.97656 6.97656,2.96875 10.65234,2.96875 3.36719,0 6.74219,-0.83203 9.84766,-2.50391 l 113.11719,-60.82422 c 6.71484,-3.61328 10.90625,-10.59375 10.9375,-18.22265 0.0273,-7.62891 -4.11328,-14.64063 -10.8086,-18.30469 z m -113.85937,63.61718 v -91.71875 l 84.53906,46.25782 z m 0,0"
           inkscape:connector-curvature="0"
           style="fill:#ffffff" />
        <path
           id="path1134"
           d="m 508.23437,91.527344 -0.0234,-0.234375 c -0.4336,-4.121094 -4.75,-40.777344 -22.57032,-59.421875 C 465.04297,9.941406 441.69141,7.277344 430.46094,6 429.53125,5.894531 428.67969,5.796875 427.91797,5.695312 l -0.89453,-0.09375 C 359.33594,0.679688 257.11328,0.0078125 256.08984,0.00390625 L 256,0 255.91016,0.00390625 C 254.88672,0.0078125 152.66406,0.679688 84.367188,5.601562 l -0.902344,0.09375 C 82.738281,5.792969 81.9375,5.882812 81.066406,5.984375 69.964844,7.265625 46.863281,9.933594 26.207031,32.65625 9.234375,51.101562 4.328125,86.972656 3.824219,91.003906 L 3.765625,91.527344 C 3.613281,93.242188 0,134.06641 0,175.05078 v 38.3125 c 0,40.98438 3.613281,81.80859 3.765625,83.52734 l 0.027344,0.25782 c 0.433593,4.05468 4.746093,40.03906 22.484375,58.6914 19.367187,21.19532 43.855468,24 57.027344,25.50782 2.082031,0.23828 3.875,0.4414 5.097656,0.65625 l 1.183594,0.16406 c 39.082032,3.71875 161.617182,5.55078 166.812502,5.625 l 0.15625,0.004 0.15625,-0.004 c 1.02343,-0.004 103.24218,-0.67578 170.92968,-5.59766 l 0.89454,-0.0937 c 0.85546,-0.11328 1.8164,-0.21484 2.87109,-0.32422 11.03906,-1.17187 34.01562,-3.60547 54.38672,-26.01953 16.97265,-18.44922 21.88281,-54.32031 22.38281,-58.34765 l 0.0586,-0.52344 c 0.15235,-1.71875 3.76954,-42.53906 3.76954,-83.52344 v -38.3125 C 512,134.06641 508.38672,93.246094 508.23437,91.527344 Z M 481.99609,213.36328 c 0,37.93359 -3.3125,77 -3.625,80.58594 -1.27343,9.8789 -6.44922,32.57422 -14.71875,41.5625 -12.75,14.02734 -25.84765,15.41797 -35.41015,16.42969 -1.15625,0.12109 -2.22657,0.23828 -3.19532,0.35937 -65.46875,4.73438 -163.83203,5.46094 -168.36328,5.48828 -5.08203,-0.0742 -125.82422,-1.92187 -163.71484,-5.4414 -1.941406,-0.31641 -4.039062,-0.5586 -6.25,-0.8086 -11.214844,-1.28515 -26.566406,-3.04297 -38.371094,-16.02734 l -0.277344,-0.29688 c -8.125,-8.46484 -13.152343,-29.6875 -14.429687,-41.14843 -0.238281,-2.71094 -3.636719,-42.23829 -3.636719,-80.70313 v -38.3125 c 0,-37.89062 3.304688,-76.914061 3.625,-80.574218 C 35.148438,82.839844 40.421875,61.519531 48.347656,52.902344 61.488281,38.449219 75.34375,36.847656 84.507812,35.789062 85.382812,35.6875 86.199219,35.59375 86.953125,35.496094 153.375,30.738281 252.44531,30.03125 256,30.003906 c 3.55469,0.02344 102.58984,0.734375 168.42187,5.492188 0.8086,0.101562 1.69141,0.203125 2.64063,0.3125 9.42578,1.074218 23.67187,2.699218 36.74609,16.644531 l 0.1211,0.128906 c 8.125,8.464844 13.15234,30.058594 14.42968,41.75 0.22657,2.558594 3.63672,42.171879 3.63672,80.718749 z m 0,0"
           inkscape:connector-curvature="0"
           style="fill:#ffffff" />
      </g>
      <text
         xml:space="preserve"
         style="font-style:normal;font-variant:normal;font-weight:normal;font-stretch:normal;font-size:15.57493305px;line-height:1.25;font-family:Ubuntu;-inkscape-font-specification:Ubuntu;letter-spacing:0px;word-spacing:0px;fill:#ffffff;fill-opacity:1;stroke:none;stroke-width:0.3893733"
         x="65.250938"
         y="230.07076"
         id="text1154"><tspan
           sodipodi:role="line"
           id="tspan1152"
           x="65.250938"
           y="230.07076"
           style="font-style:normal;font-variant:normal;font-weight:normal;font-stretch:normal;font-family:Ubuntu;-inkscape-font-specification:Ubuntu;fill:#ffffff;stroke-width:0.3893733">bit.ly/3gh0OvS</tspan></text>
    </g>
    <g
       id="g1479"
       transform="matrix(0.0390622,0,0,0.04399218,209.99233,222.35731)"
       style="fill:#ffffff">
      <path
         id="path1475"
         d="M 334.80859,170.99219 221.69531,109.10156 c -6.5039,-3.55859 -14.1914,-3.42578 -20.5664,0.35157 -6.37891,3.78125 -10.1836,10.46093 -10.1836,17.875 v 122.71874 c 0,7.37891 3.78125,14.04688 10.11719,17.83204 3.30859,1.97656 6.97656,2.96875 10.65234,2.96875 3.36719,0 6.74219,-0.83203 9.84766,-2.50391 l 113.11719,-60.82422 c 6.71484,-3.61328 10.90625,-10.59375 10.9375,-18.22265 0.0273,-7.62891 -4.11328,-14.64063 -10.8086,-18.30469 z m -113.85937,63.61718 v -91.71875 l 84.53906,46.25782 z m 0,0"
         inkscape:connector-curvature="0"
         style="fill:#ffffff" />
      <path
         id="path1477"
         d="m 508.23437,91.527344 -0.0234,-0.234375 c -0.4336,-4.121094 -4.75,-40.777344 -22.57032,-59.421875 C 465.04297,9.941406 441.69141,7.277344 430.46094,6 429.53125,5.894531 428.67969,5.796875 427.91797,5.695312 l -0.89453,-0.09375 C 359.33594,0.679688 257.11328,0.0078125 256.08984,0.00390625 L 256,0 255.91016,0.00390625 C 254.88672,0.0078125 152.66406,0.679688 84.367188,5.601562 l -0.902344,0.09375 C 82.738281,5.792969 81.9375,5.882812 81.066406,5.984375 69.964844,7.265625 46.863281,9.933594 26.207031,32.65625 9.234375,51.101562 4.328125,86.972656 3.824219,91.003906 L 3.765625,91.527344 C 3.613281,93.242188 0,134.06641 0,175.05078 v 38.3125 c 0,40.98438 3.613281,81.80859 3.765625,83.52734 l 0.027344,0.25782 c 0.433593,4.05468 4.746093,40.03906 22.484375,58.6914 19.367187,21.19532 43.855468,24 57.027344,25.50782 2.082031,0.23828 3.875,0.4414 5.097656,0.65625 l 1.183594,0.16406 c 39.082032,3.71875 161.617182,5.55078 166.812502,5.625 l 0.15625,0.004 0.15625,-0.004 c 1.02343,-0.004 103.24218,-0.67578 170.92968,-5.59766 l 0.89454,-0.0937 c 0.85546,-0.11328 1.8164,-0.21484 2.87109,-0.32422 11.03906,-1.17187 34.01562,-3.60547 54.38672,-26.01953 16.97265,-18.44922 21.88281,-54.32031 22.38281,-58.34765 l 0.0586,-0.52344 c 0.15235,-1.71875 3.76954,-42.53906 3.76954,-83.52344 v -38.3125 C 512,134.06641 508.38672,93.246094 508.23437,91.527344 Z M 481.99609,213.36328 c 0,37.93359 -3.3125,77 -3.625,80.58594 -1.27343,9.8789 -6.44922,32.57422 -14.71875,41.5625 -12.75,14.02734 -25.84765,15.41797 -35.41015,16.42969 -1.15625,0.12109 -2.22657,0.23828 -3.19532,0.35937 -65.46875,4.73438 -163.83203,5.46094 -168.36328,5.48828 -5.08203,-0.0742 -125.82422,-1.92187 -163.71484,-5.4414 -1.941406,-0.31641 -4.039062,-0.5586 -6.25,-0.8086 -11.214844,-1.28515 -26.566406,-3.04297 -38.371094,-16.02734 l -0.277344,-0.29688 c -8.125,-8.46484 -13.152343,-29.6875 -14.429687,-41.14843 -0.238281,-2.71094 -3.636719,-42.23829 -3.636719,-80.70313 v -38.3125 c 0,-37.89062 3.304688,-76.914061 3.625,-80.574218 C 35.148438,82.839844 40.421875,61.519531 48.347656,52.902344 61.488281,38.449219 75.34375,36.847656 84.507812,35.789062 85.382812,35.6875 86.199219,35.59375 86.953125,35.496094 153.375,30.738281 252.44531,30.03125 256,30.003906 c 3.55469,0.02344 102.58984,0.734375 168.42187,5.492188 0.8086,0.101562 1.69141,0.203125 2.64063,0.3125 9.42578,1.074218 23.67187,2.699218 36.74609,16.644531 l 0.1211,0.128906 c 8.125,8.464844 13.15234,30.058594 14.42968,41.75 0.22657,2.558594 3.63672,42.171879 3.63672,80.718749 z m 0,0"
         inkscape:connector-curvature="0"
         style="fill:#ffffff" />
    </g>
    <text
       id="text1497"
       y="164.81447"
       x="198.63757"
       style="font-style:normal;font-variant:normal;font-weight:normal;font-stretch:normal;font-size:16.30903244px;line-height:1.25;font-family:Ubuntu;-inkscape-font-specification:Ubuntu;letter-spacing:0px;word-spacing:0px;opacity:1;fill:#ffffff;fill-opacity:1;stroke:#ffffff;stroke-width:0.47873127;stroke-miterlimit:4;stroke-dasharray:none;stroke-opacity:1"
       xml:space="preserve"><tspan
         style="font-style:normal;font-variant:normal;font-weight:normal;font-stretch:normal;font-family:Rubik;-inkscape-font-specification:Rubik;fill:#ffffff;fill-opacity:1;stroke:#ffffff;stroke-width:0.47873127;stroke-miterlimit:4;stroke-dasharray:none;stroke-opacity:1"
         y="164.81447"
         x="198.63757"
         id="tspan1495"
         sodipodi:role="line">Nome do Convidado</tspan></text>
    <text
       id="text1501"
       y="181.80675"
       x="227.92734"
       style="font-style:normal;font-variant:normal;font-weight:normal;font-stretch:normal;font-size:10.02646637px;line-height:1.25;font-family:Ubuntu;-inkscape-font-specification:Ubuntu;letter-spacing:0px;word-spacing:0px;opacity:1;fill:#ffffff;fill-opacity:1;stroke:#ffffff;stroke-width:0.47873127;stroke-miterlimit:4;stroke-dasharray:none;stroke-opacity:1"
       xml:space="preserve"><tspan
         style="font-style:normal;font-variant:normal;font-weight:normal;font-stretch:normal;font-family:Rubik;-inkscape-font-specification:Rubik;fill:#ffffff;fill-opacity:1;stroke:#ffffff;stroke-width:0.47873127;stroke-miterlimit:4;stroke-dasharray:none;stroke-opacity:1"
         y="181.80675"
         x="227.92734"
         id="tspan1499"
         sodipodi:role="line">Cargo do Convidado</tspan></text>
    <text
       xml:space="preserve"
       style="font-style:normal;font-variant:normal;font-weight:normal;font-stretch:normal;font-size:10.58333302px;line-height:1.25;font-family:Rubik;-inkscape-font-specification:Rubik;letter-spacing:0px;word-spacing:0px;fill:#000000;fill-opacity:1;stroke:none;stroke-width:0.26458332"
       x="-14.177439"
       y="116.01889"
       id="text1100"><tspan
         sodipodi:role="line"
         id="tspan1098"
         x="-14.177439"
         y="125.69237"
         style="font-size:16.93333244px;fill:#ffffff;stroke-width:0.26458332" /></text>
    <text
       xml:space="preserve"
       style="font-style:normal;font-variant:normal;font-weight:normal;font-stretch:normal;font-size:10.58333302px;line-height:1.25;font-family:Rubik;-inkscape-font-specification:Rubik;letter-spacing:0px;word-spacing:0px;fill:#ffffff;fill-opacity:1;stroke:none;stroke-width:0.26458332"
       x="-37.777363"
       y="120.42665"
       id="text1118"><tspan
         sodipodi:role="line"
         x="-37.777363"
         y="120.42665"
         id="tspan1112"
         style="stroke-width:0.26458332"><tspan
           x="-37.777363"
           y="120.42665"
           style="font-size:22.57777786px;fill:#ffffff;stroke-width:0.26458332"
           id="tspan1110">Titulo da apresentação </tspan></tspan><tspan
         sodipodi:role="line"
         x="-37.777363"
         y="148.64888"
         id="tspan1116"
         style="stroke-width:0.26458332"><tspan
           x="-37.777363"
           y="148.64888"
           style="font-size:22.57777786px;fill:#ffffff;stroke-width:0.26458332"
           id="tspan1114">do convidado</tspan></tspan></text>
  </g>
</svg>
